<?xml version="1.0" encoding="iso-8859-1"?>
<!-- Generator: Adobe Illustrator 18.0.0, SVG Export Plug-In . SVG Version: 6.00 Build 0)  -->
<!DOCTYPE svg PUBLIC "-//W3C//DTD SVG 1.1//EN" "http://www.w3.org/Graphics/SVG/1.1/DTD/svg11.dtd">
<svg xmlns="http://www.w3.org/2000/svg" xmlns:xlink="http://www.w3.org/1999/xlink" version="1.1" id="Capa_1" x="0px" y="0px" viewBox="0 0 330 330" style="enable-background:new 0 0 330 330;" xml:space="preserve" width="512px" height="512px">
<path d="M315,30h-85V15c0-8.284-6.716-15-15-15s-15,6.716-15,15v15h-70V15c0-8.284-6.716-15-15-15s-15,6.716-15,15v15H15  C6.716,30,0,36.716,0,45v270c0,8.284,6.716,15,15,15h100h100h100c8.284,0,15-6.716,15-15V45C330,36.716,323.284,30,315,30z M300,120  v40h-70v-40H300z M200,160h-70v-40h70V160z M100,160H30v-40h70V160z M30,190h70v40H30V190z M130,190h70v40h-70V190z M230,190h70v40  h-70V190z M300,60v30h-85H115H30V60H300z M30,260h70v40H30V260z M130,300v-40h70v40H130z M230,300v-40h70v40H230z" fill="#FFFFFF"/>
<g>
</g>
<g>
</g>
<g>
</g>
<g>
</g>
<g>
</g>
<g>
</g>
<g>
</g>
<g>
</g>
<g>
</g>
<g>
</g>
<g>
</g>
<g>
</g>
<g>
</g>
<g>
</g>
<g>
</g>
</svg>
