<svg xmlns="http://www.w3.org/2000/svg" viewBox="0 0 640 640"><title>Icons_typo3_01</title><rect width="640" height="640" style="fill:#022dc7"/><path d="M483,205.18V473H164V205.18H483m0-20H164a20,20,0,0,0-20,20V473a20,20,0,0,0,20,20H483a20,20,0,0,0,20-20V205.18a20,20,0,0,0-20-20Z" style="fill:#fff"/><rect x="151.11" y="191.58" width="345.49" height="44.79" rx="3" ry="3" style="fill:#fff"/><line x1="496.11" y1="274.19" x2="153" y2="274.19" style="fill:#fff;stroke:#fff;stroke-miterlimit:10;stroke-width:10px"/><rect x="153" y="270.48" width="343.11" height="7.41" style="fill:#fff;stroke:#fff;stroke-miterlimit:10;stroke-width:10px"/><line x1="496.11" y1="354.26" x2="153" y2="354.26" style="fill:#fff;stroke:#fff;stroke-miterlimit:10;stroke-width:10px"/><rect x="153" y="350.55" width="343.11" height="7.41" style="fill:#fff;stroke:#fff;stroke-miterlimit:10;stroke-width:10px"/><line x1="496.11" y1="433.59" x2="153" y2="433.59" style="fill:#fff;stroke:#fff;stroke-miterlimit:10;stroke-width:10px"/><rect x="153" y="429.88" width="343.11" height="7.41" style="fill:#fff;stroke:#fff;stroke-miterlimit:10;stroke-width:10px"/><line x1="263.63" y1="230.45" x2="263.63" y2="484" style="fill:#fff;stroke:#fff;stroke-miterlimit:10;stroke-width:10px"/><rect x="259.9" y="230.45" width="7.48" height="253.55" style="fill:#fff;stroke:#fff;stroke-miterlimit:10;stroke-width:10px"/><line x1="392.21" y1="230.45" x2="392.21" y2="484" style="fill:#fff;stroke:#fff;stroke-miterlimit:10;stroke-width:10px"/><rect x="388.47" y="230.45" width="7.48" height="253.55" style="fill:#fff;stroke:#fff;stroke-miterlimit:10;stroke-width:10px"/><line x1="215" y1="146" x2="215" y2="199" style="fill:#fff;stroke:#fff;stroke-linecap:round;stroke-linejoin:round;stroke-width:20px"/><line x1="413" y1="146" x2="413" y2="199" style="fill:#fff;stroke:#fff;stroke-linecap:round;stroke-linejoin:round;stroke-width:20px"/></svg>