<?xml version="1.0" encoding="UTF-8" standalone="no"?>
<!-- Generator: Adobe Illustrator 16.0.0, SVG Export Plug-In . SVG Version: 6.00 Build 0)  -->

<svg
   xmlns:dc="http://purl.org/dc/elements/1.1/"
   xmlns:cc="http://creativecommons.org/ns#"
   xmlns:rdf="http://www.w3.org/1999/02/22-rdf-syntax-ns#"
   xmlns:svg="http://www.w3.org/2000/svg"
   xmlns="http://www.w3.org/2000/svg"
   xmlns:sodipodi="http://sodipodi.sourceforge.net/DTD/sodipodi-0.dtd"
   xmlns:inkscape="http://www.inkscape.org/namespaces/inkscape"
   version="1.1"
   id="Capa_1"
   x="0px"
   y="0px"
   width="512px"
   height="512px"
   viewBox="0 0 124.813 124.813"
   style="enable-background:new 0 0 124.813 124.813;"
   xml:space="preserve"
   inkscape:version="0.48.0 r9654"
   sodipodi:docname="event-calendar.svg"><metadata
   id="metadata3234"><rdf:RDF><cc:Work
       rdf:about=""><dc:format>image/svg+xml</dc:format><dc:type
         rdf:resource="http://purl.org/dc/dcmitype/StillImage" /></cc:Work></rdf:RDF></metadata><defs
   id="defs3232" /><sodipodi:namedview
   pagecolor="#000000"
   bordercolor="#666666"
   borderopacity="1"
   objecttolerance="10"
   gridtolerance="10"
   guidetolerance="10"
   inkscape:pageopacity="0"
   inkscape:pageshadow="2"
   inkscape:window-width="816"
   inkscape:window-height="718"
   id="namedview3230"
   showgrid="false"
   inkscape:zoom="0.6484375"
   inkscape:cx="194.31325"
   inkscape:cy="256"
   inkscape:window-x="2870"
   inkscape:window-y="446"
   inkscape:window-maximized="0"
   inkscape:current-layer="Capa_1" />
<g
   id="g3192"
   transform="translate(0,-0.73132617)">
	<g
   id="g3194">
		<path
   d="m 48.083,80.355 -1.915,11.374 c -0.261,1.555 0.377,3.122 1.65,4.05 1.275,0.926 2.968,1.05 4.361,0.32 L 62.405,90.761 72.631,96.1 c 0.605,0.314 1.268,0.472 1.924,0.472 0.859,0 1.716,-0.269 2.439,-0.792 1.274,-0.928 1.914,-2.495 1.651,-4.05 l -1.913,-11.374 8.234,-8.077 c 1.126,-1.103 1.527,-2.749 1.044,-4.247 -0.485,-1.497 -1.783,-2.593 -3.341,-2.823 L 71.259,63.517 66.12,53.188 c -0.697,-1.41 -2.141,-2.303 -3.716,-2.303 -1.572,0 -3.015,0.893 -3.718,2.303 l -5.134,10.329 -11.41,1.691 c -1.561,0.23 -2.853,1.326 -3.339,2.823 -0.486,1.498 -0.086,3.146 1.042,4.247 l 8.238,8.077 z"
   id="path3196"
   inkscape:connector-curvature="0"
   style="fill:#ffffff" />
		<path
   d="M 111.443,13.269 H 98.378 V 6.022 C 98.378,2.696 95.682,0 92.355,0 H 91.4 c -3.326,0 -6.021,2.696 -6.021,6.022 v 7.247 H 39.282 V 6.022 C 39.282,2.696 36.586,0 33.261,0 h -0.956 c -3.326,0 -6.021,2.696 -6.021,6.022 v 7.247 H 13.371 c -6.833,0 -12.394,5.559 -12.394,12.394 v 86.757 c 0,6.831 5.561,12.394 12.394,12.394 h 98.073 c 6.832,0 12.394,-5.562 12.394,-12.394 V 25.663 c -10e-4,-6.835 -5.563,-12.394 -12.395,-12.394 z m -1.617,97.534 H 14.988 V 43.268 h 94.838 v 67.535 z"
   id="path3198"
   inkscape:connector-curvature="0"
   style="fill:#ffffff" />
	</g>
</g>
<g
   id="g3200">
</g>
<g
   id="g3202">
</g>
<g
   id="g3204">
</g>
<g
   id="g3206">
</g>
<g
   id="g3208">
</g>
<g
   id="g3210">
</g>
<g
   id="g3212">
</g>
<g
   id="g3214">
</g>
<g
   id="g3216">
</g>
<g
   id="g3218">
</g>
<g
   id="g3220">
</g>
<g
   id="g3222">
</g>
<g
   id="g3224">
</g>
<g
   id="g3226">
</g>
<g
   id="g3228">
</g>
</svg>