<?xml version="1.0" encoding="UTF-8" standalone="no"?>
<svg
   xmlns:dc="http://purl.org/dc/elements/1.1/"
   xmlns:cc="http://creativecommons.org/ns#"
   xmlns:rdf="http://www.w3.org/1999/02/22-rdf-syntax-ns#"
   xmlns:svg="http://www.w3.org/2000/svg"
   xmlns="http://www.w3.org/2000/svg"
   xmlns:sodipodi="http://sodipodi.sourceforge.net/DTD/sodipodi-0.dtd"
   xmlns:inkscape="http://www.inkscape.org/namespaces/inkscape"
   viewBox="0 0 640 640"
   version="1.1"
   id="svg18"
   sodipodi:docname="module-schedule"
   inkscape:version="0.92.3 (2405546, 2018-03-11)">
  <metadata
     id="metadata24">
    <rdf:RDF>
      <cc:Work
         rdf:about="">
        <dc:format>image/svg+xml</dc:format>
        <dc:type
           rdf:resource="http://purl.org/dc/dcmitype/StillImage" />
      </cc:Work>
    </rdf:RDF>
  </metadata>
  <defs
     id="defs22" />
  <sodipodi:namedview
     pagecolor="#ffffff"
     bordercolor="#666666"
     borderopacity="1"
     objecttolerance="10"
     gridtolerance="10"
     guidetolerance="10"
     inkscape:pageopacity="0"
     inkscape:pageshadow="2"
     inkscape:window-width="1880"
     inkscape:window-height="1051"
     id="namedview20"
     showgrid="false"
     inkscape:zoom="0.36875"
     inkscape:cx="320"
     inkscape:cy="334.91525"
     inkscape:window-x="40"
     inkscape:window-y="0"
     inkscape:window-maximized="1"
     inkscape:current-layer="svg18" />
  <title
     id="title2">Icons_typo3_01</title>
  <rect
     width="640"
     height="640"
     style="fill:#a02c5a"
     id="rect4" />
  <path
     d="M475,210.9V465H172V210.9H475m0-20H172a20,20,0,0,0-20,20V465a20,20,0,0,0,20,20H475a20,20,0,0,0,20-20V210.9a20,20,0,0,0-20-20Z"
     style="fill:#fff"
     id="path6" />
  <rect
     x="158.79"
     y="197.02"
     width="330.1"
     height="42.79"
     rx="3"
     ry="3"
     style="fill:#fff"
     id="rect8" />
  <path
     d="M232.89,417a7.86,7.86,0,0,1,8-8h28.88V300.53l-29.29,11.05a10.09,10.09,0,0,1-3.89.82,7.78,7.78,0,0,1-7.78-7.78c0-2.87,1.23-5.94,5.53-7.57l40.14-14.54a11,11,0,0,1,4.09-.82c4.51,0,8.6,3.48,8.6,8V409.06h19.66a8,8,0,1,1,0,16H240.87A7.87,7.87,0,0,1,232.89,417Z"
     style="fill:#fff;stroke:#fff;stroke-miterlimit:10;stroke-width:10px"
     id="path10" />
  <path
     d="M347,418.07a10.26,10.26,0,0,1,1-4.3l50.17-115.09H334.86a8.5,8.5,0,0,1,0-17h74.95a8.67,8.67,0,0,1,8,11.87L363.53,421.14A8.57,8.57,0,0,1,347,418.07Z"
     style="fill:#fff;stroke:#fff;stroke-miterlimit:10;stroke-width:10px"
     id="path12" />
  <line
     x1="215"
     y1="146"
     x2="215"
     y2="199"
     style="fill:#fff;stroke:#fff;stroke-linecap:round;stroke-linejoin:round;stroke-width:20px"
     id="line14" />
  <line
     x1="413"
     y1="146"
     x2="413"
     y2="199"
     style="fill:#fff;stroke:#fff;stroke-linecap:round;stroke-linejoin:round;stroke-width:20px"
     id="line16" />
</svg>
