<?xml version="1.0" encoding="UTF-8" standalone="no"?>
<svg
   xmlns:dc="http://purl.org/dc/elements/1.1/"
   xmlns:cc="http://creativecommons.org/ns#"
   xmlns:rdf="http://www.w3.org/1999/02/22-rdf-syntax-ns#"
   xmlns:svg="http://www.w3.org/2000/svg"
   xmlns="http://www.w3.org/2000/svg"
   xmlns:sodipodi="http://sodipodi.sourceforge.net/DTD/sodipodi-0.dtd"
   xmlns:inkscape="http://www.inkscape.org/namespaces/inkscape"
   viewBox="0 0 16 16"
   version="1.1"
   id="svg8"
   sodipodi:docname="tx_t3events_domain_model_performancestatus.svg"
   inkscape:version="0.92.3 (2405546, 2018-03-11)">
  <metadata
     id="metadata14">
    <rdf:RDF>
      <cc:Work
         rdf:about="">
        <dc:format>image/svg+xml</dc:format>
        <dc:type
           rdf:resource="http://purl.org/dc/dcmitype/StillImage" />
        <dc:title></dc:title>
      </cc:Work>
    </rdf:RDF>
  </metadata>
  <defs
     id="defs12" />
  <sodipodi:namedview
     pagecolor="#ffffff"
     bordercolor="#666666"
     borderopacity="1"
     objecttolerance="10"
     gridtolerance="10"
     guidetolerance="10"
     inkscape:pageopacity="0"
     inkscape:pageshadow="2"
     inkscape:window-width="1661"
     inkscape:window-height="1023"
     id="namedview10"
     showgrid="false"
     inkscape:zoom="41.7193"
     inkscape:cx="6.629739"
     inkscape:cy="8"
     inkscape:window-x="40"
     inkscape:window-y="0"
     inkscape:window-maximized="0"
     inkscape:current-layer="svg8" />
  <path
     style="fill:#e9afc6;stroke:none;stroke-width:1px;stroke-linecap:butt;stroke-linejoin:miter;stroke-opacity:1"
     d="M 2.0134566,13.842725 8.005887,2.0016827 13.950378,13.890665 Z"
     id="path949"
     inkscape:connector-curvature="0" />
  <g
     id="g947"
     transform="matrix(0.40041615,0,0,0.40041615,1.5936545,1.5933416)"
     style="fill:#782144">
    <path
       id="path930"
       d="M 16,2.899 29.409,29.625 H 2.59 L 15.999,2.899 Z M 16,0 C 15.31,0 14.621,0.465 14.097,1.395 L 0.438,28.617 C -0.608,30.477 0.282,32 2.416,32 h 27.166 c 2.134,0 3.025,-1.522 1.978,-3.383 v 0 L 17.901,1.395 C 17.378,0.465 16.688,0 15.998,0 v 0 z"
       inkscape:connector-curvature="0"
       style="fill:#782144" />
    <path
       id="path932"
       d="m 18,26 c 0,1.105 -0.895,2 -2,2 -1.105,0 -2,-0.895 -2,-2 0,-1.105 0.895,-2 2,-2 1.105,0 2,0.895 2,2 z"
       inkscape:connector-curvature="0"
       style="fill:#782144" />
    <path
       id="path934"
       d="m 16,22 c -1.105,0 -2,-0.895 -2,-2 v -6 c 0,-1.105 0.895,-2 2,-2 1.105,0 2,0.895 2,2 v 6 c 0,1.105 -0.895,2 -2,2 z"
       inkscape:connector-curvature="0"
       style="fill:#782144" />
  </g>
</svg>
