<?xml version="1.0" encoding="UTF-8" standalone="no"?>
<svg
   xmlns:dc="http://purl.org/dc/elements/1.1/"
   xmlns:cc="http://creativecommons.org/ns#"
   xmlns:rdf="http://www.w3.org/1999/02/22-rdf-syntax-ns#"
   xmlns:svg="http://www.w3.org/2000/svg"
   xmlns="http://www.w3.org/2000/svg"
   height="512px"
   width="512px"
   xml:space="preserve"
   style="enable-background:new 0 0 330 330;"
   viewBox="0 0 330 330"
   y="0px"
   x="0px"
   id="Capa_1"
   version="1.1"><metadata
     id="metadata3115"><rdf:RDF><cc:Work
         rdf:about=""><dc:format>image/svg+xml</dc:format><dc:type
           rdf:resource="http://purl.org/dc/dcmitype/StillImage" /><dc:title></dc:title></cc:Work></rdf:RDF></metadata><defs
     id="defs3113" /><rect
     y="1.9818544e-05"
     x="0"
     height="330"
     width="330"
     id="rect3953"
     style="color:#000000;fill:#0011bb;fill-opacity:1;fill-rule:nonzero;stroke:none;stroke-width:1;marker:none;visibility:visible;display:inline;overflow:visible;enable-background:accumulate" /><g
     id="g3081" /><g
     id="g3083" /><g
     id="g3085" /><g
     id="g3087" /><g
     id="g3089" /><g
     id="g3091" /><g
     id="g3093" /><g
     id="g3095" /><g
     id="g3097" /><g
     id="g3099" /><g
     id="g3101" /><g
     id="g3103" /><g
     id="g3105" /><g
     id="g3107" /><g
     id="g3109" /><path
     style="fill:#ffffff;fill-opacity:1;stroke:none;stroke-opacity:1"
     id="path3079"
     d="m 253.839,78.474138 -43.72281,0 0,-15.890704 c -16.62162,-0.518265 0.33668,0.153734 -16.85754,0 l 0,15.890704 -63.18189,0 0,-15.890704 c -16.62161,-0.239949 -0.80547,0.153728 -17.50206,0 l 0,15.890704 -43.722815,0 0,188.966462 184.987115,0 z m -16.63467,56.570742 0,25.14254 -27.08814,0 0,-25.14254 z m -43.94568,25.14254 -63.1819,0 0,-25.14254 63.1819,0 z m -80.68396,0 -27.088148,0 0,-25.14254 27.088148,0 z m -27.088148,18.85692 27.088148,0 0,25.14255 -27.088148,0 z m 44.590208,0 63.1819,0 0,25.14255 -63.1819,0 z m 80.03944,0 27.08814,0 0,25.14255 -27.08814,0 z m 27.08814,-81.713294 0,18.856914 -151.717788,0 0,-18.856914 z M 85.486542,223.0438 l 27.088148,0 0,25.14255 -27.088148,0 z m 44.590208,25.14255 0,-25.14255 63.1819,0 0,25.14255 z m 80.03944,0 0,-25.14255 27.08814,0 0,25.14255 z" /></svg>