<?xml version="1.0" encoding="UTF-8" standalone="no"?>
<svg
   xmlns:dc="http://purl.org/dc/elements/1.1/"
   xmlns:cc="http://creativecommons.org/ns#"
   xmlns:rdf="http://www.w3.org/1999/02/22-rdf-syntax-ns#"
   xmlns:svg="http://www.w3.org/2000/svg"
   xmlns="http://www.w3.org/2000/svg"
   xmlns:sodipodi="http://sodipodi.sourceforge.net/DTD/sodipodi-0.dtd"
   xmlns:inkscape="http://www.inkscape.org/namespaces/inkscape"
   x="0px"
   y="0px"
   width="96px"
   height="96px"
   viewBox="0 0 32 32"
   version="1.1"
   id="svg4"
   sodipodi:docname="tx_t3events_domain_model_audience.svg"
   inkscape:version="0.92.3 (2405546, 2018-03-11)">
  <metadata
     id="metadata10">
    <rdf:RDF>
      <cc:Work
         rdf:about="">
        <dc:format>image/svg+xml</dc:format>
        <dc:type
           rdf:resource="http://purl.org/dc/dcmitype/StillImage" />
      </cc:Work>
    </rdf:RDF>
  </metadata>
  <defs
     id="defs8" />
  <sodipodi:namedview
     pagecolor="#ffffff"
     bordercolor="#666666"
     borderopacity="1"
     objecttolerance="10"
     gridtolerance="10"
     guidetolerance="10"
     inkscape:pageopacity="0"
     inkscape:pageshadow="2"
     inkscape:window-width="1880"
     inkscape:window-height="1051"
     id="namedview6"
     showgrid="false"
     inkscape:object-paths="true"
     inkscape:snap-nodes="false"
     inkscape:zoom="2.4583333"
     inkscape:cx="-127.72882"
     inkscape:cy="54.820312"
     inkscape:window-x="40"
     inkscape:window-y="0"
     inkscape:window-maximized="1"
     inkscape:current-layer="svg4" />
  <g
     id="g836"
     transform="matrix(2.1751412,0,0,2.1751412,170.25069,11.28105)">
    <path
       style="fill:#782144;stroke-width:0.33333334"
       id="path816"
       d="M -68.915254,4.8634915 V 4.3138248 c 0.734333,-0.4136667 1.333333,-1.4456667 1.333333,-2.4773333 0,-1.657 0,-3 -2,-3 -2,0 -2,1.343 -2,3 0,1.032 0.599,2.0636666 1.333334,2.4773333 v 0.5496667 c -2.261334,0.185 -4,1.2959999 -4,2.6393333 h 9.333333 c 0,-1.3433334 -1.738667,-2.4546667 -4,-2.6393333 z"
       inkscape:connector-curvature="0" />
    <path
       style="fill:#c83771;stroke-width:0.33333334"
       id="path818"
       d="m -73.506921,5.1208248 c 0.576,-0.3766667 1.292334,-0.663 2.081,-0.8376667 -0.156666,-0.1853333 -0.299,-0.392 -0.421666,-0.6146666 -0.316667,-0.5753334 -0.484334,-1.209 -0.484334,-1.8323334 0,-0.89633327 0,-1.7426666 0.318667,-2.43499993 0.309333,-0.67199997 0.866,-1.08833327 1.658667,-1.24466667 -0.176334,-0.7966666 -0.645334,-1.3203333 -1.894,-1.3203333 -2,0 -2,1.343 -2,2.99999997 0,1.03199999 0.599,2.06366663 1.333333,2.47733333 v 0.5496666 c -2.261333,0.185 -4,1.296 -4,2.6393333 h 2.906333 c 0.151334,-0.1343333 0.318667,-0.2623333 0.502,-0.3819999 z"
       inkscape:connector-curvature="0" />
  </g>
</svg>
