<?xml version="1.0" encoding="UTF-8" standalone="no"?>
<svg
   xmlns:dc="http://purl.org/dc/elements/1.1/"
   xmlns:cc="http://creativecommons.org/ns#"
   xmlns:rdf="http://www.w3.org/1999/02/22-rdf-syntax-ns#"
   xmlns:svg="http://www.w3.org/2000/svg"
   xmlns="http://www.w3.org/2000/svg"
   xmlns:sodipodi="http://sodipodi.sourceforge.net/DTD/sodipodi-0.dtd"
   xmlns:inkscape="http://www.inkscape.org/namespaces/inkscape"
   viewBox="0 0 16 16"
   version="1.1"
   id="svg8"
   sodipodi:docname="tx_t3events_domain_model_company.svg"
   inkscape:version="0.92.3 (2405546, 2018-03-11)">
  <metadata
     id="metadata14">
    <rdf:RDF>
      <cc:Work
         rdf:about="">
        <dc:format>image/svg+xml</dc:format>
        <dc:type
           rdf:resource="http://purl.org/dc/dcmitype/StillImage" />
        <dc:title></dc:title>
      </cc:Work>
    </rdf:RDF>
  </metadata>
  <defs
     id="defs12" />
  <sodipodi:namedview
     pagecolor="#ffffff"
     bordercolor="#666666"
     borderopacity="1"
     objecttolerance="10"
     gridtolerance="10"
     guidetolerance="10"
     inkscape:pageopacity="0"
     inkscape:pageshadow="2"
     inkscape:window-width="1661"
     inkscape:window-height="1023"
     id="namedview10"
     showgrid="false"
     inkscape:zoom="10.429825"
     inkscape:cx="6.629739"
     inkscape:cy="8"
     inkscape:window-x="40"
     inkscape:window-y="0"
     inkscape:window-maximized="0"
     inkscape:current-layer="svg8" />
  <path
     id="path1036"
     d="M 13.484756,4.4740848 H 10.35061 v -0.783536 c 0,-0.430946 -0.352591,-0.783537 -0.783537,-0.783537 H 6.432927 c -0.430945,0 -0.783537,0.352591 -0.783537,0.783537 v 0.783536 H 2.515244 c -0.430946,0 -0.783537,0.352592 -0.783537,0.783537 v 7.0518302 c 0,0.430945 0.352591,0.783536 0.783537,0.783536 h 10.969512 c 0.430946,0 0.783537,-0.352591 0.783537,-0.783536 V 5.2576218 c 0,-0.430945 -0.352591,-0.783537 -0.783537,-0.783537 z M 6.432927,3.6921158 c 3.92e-4,-3.92e-4 7.83e-4,-0.0012 0.0016,-0.0016 h 3.131404 c 3.92e-4,3.91e-4 0.0012,7.83e-4 0.0016,0.0016 v 0.781969 H 6.433385 v -0.781969 z m 7.051829,3.916116 h -1.567073 v 1.175305 c 0,0.2154726 -0.176295,0.3917684 -0.391768,0.3917684 h -0.783537 c -0.215472,0 -0.391768,-0.1762958 -0.391768,-0.3917684 V 7.6082318 H 5.64939 v 1.175305 c 0,0.2154726 -0.176296,0.3917684 -0.391768,0.3917684 H 4.474085 c -0.215472,0 -0.391768,-0.1762958 -0.391768,-0.3917684 V 7.6082318 H 2.515244 v -0.783537 h 10.969512 z"
     inkscape:connector-curvature="0"
     style="stroke-width:0.39176831;fill:#782144" />
</svg>
