<?xml version="1.0" encoding="UTF-8" standalone="no"?>
<svg
   xmlns:dc="http://purl.org/dc/elements/1.1/"
   xmlns:cc="http://creativecommons.org/ns#"
   xmlns:rdf="http://www.w3.org/1999/02/22-rdf-syntax-ns#"
   xmlns:svg="http://www.w3.org/2000/svg"
   xmlns="http://www.w3.org/2000/svg"
   xmlns:sodipodi="http://sodipodi.sourceforge.net/DTD/sodipodi-0.dtd"
   xmlns:inkscape="http://www.inkscape.org/namespaces/inkscape"
   viewBox="0 0 16 16"
   version="1.1"
   id="svg8"
   sodipodi:docname="tx_t3events_domain_model_person.svg"
   inkscape:version="0.92.3 (2405546, 2018-03-11)">
  <metadata
     id="metadata14">
    <rdf:RDF>
      <cc:Work
         rdf:about="">
        <dc:format>image/svg+xml</dc:format>
        <dc:type
           rdf:resource="http://purl.org/dc/dcmitype/StillImage" />
        <dc:title></dc:title>
      </cc:Work>
    </rdf:RDF>
  </metadata>
  <defs
     id="defs12" />
  <sodipodi:namedview
     pagecolor="#ffffff"
     bordercolor="#666666"
     borderopacity="1"
     objecttolerance="10"
     gridtolerance="10"
     guidetolerance="10"
     inkscape:pageopacity="0"
     inkscape:pageshadow="2"
     inkscape:window-width="1661"
     inkscape:window-height="1023"
     id="namedview10"
     showgrid="false"
     inkscape:zoom="14.75"
     inkscape:cx="-6.7118644"
     inkscape:cy="8"
     inkscape:window-x="40"
     inkscape:window-y="0"
     inkscape:window-maximized="0"
     inkscape:current-layer="svg8" />
  <circle
     fill="#FFF"
     cx="8"
     cy="6"
     r="2"
     id="circle6" />
  <path
     id="path861"
     d="m 5.3762707,4.4372881 c 0,-1.4491729 1.1745567,-2.6237288 2.6237296,-2.6237288 1.4491719,0 2.6237287,1.1745559 2.6237287,2.6237288 0,1.4491729 -1.1745567,2.6237288 -2.6237287,2.6237288 -1.4491729,0 -2.6237296,-1.1745559 -2.6237296,-2.6237288 z M 11.499179,7.9355932 H 11.015101 L 8.2942943,13.459854 9.3118647,8.3728812 8.0000004,7.0610169 6.688135,8.3728812 7.7057054,13.459854 4.9848982,7.9355932 H 4.5008205 c -1.7482783,0 -1.7482783,1.1749934 -1.7482783,2.6237288 v 4.372882 H 13.247458 v -4.372882 c 0,-1.4487354 0,-2.6237288 -1.748279,-2.6237288 z"
     inkscape:connector-curvature="0"
     style="fill:#782144;stroke-width:0.43728811" />
</svg>
