<?xml version="1.0" encoding="UTF-8" standalone="no"?>
<svg
   xmlns:dc="http://purl.org/dc/elements/1.1/"
   xmlns:cc="http://creativecommons.org/ns#"
   xmlns:rdf="http://www.w3.org/1999/02/22-rdf-syntax-ns#"
   xmlns:svg="http://www.w3.org/2000/svg"
   xmlns="http://www.w3.org/2000/svg"
   xmlns:sodipodi="http://sodipodi.sourceforge.net/DTD/sodipodi-0.dtd"
   xmlns:inkscape="http://www.inkscape.org/namespaces/inkscape"
   viewBox="0 0 16 16"
   version="1.1"
   id="svg8"
   sodipodi:docname="tx_t3events_domain_model_eventlocation.svg"
   inkscape:version="0.92.3 (2405546, 2018-03-11)">
  <metadata
     id="metadata14">
    <rdf:RDF>
      <cc:Work
         rdf:about="">
        <dc:format>image/svg+xml</dc:format>
        <dc:type
           rdf:resource="http://purl.org/dc/dcmitype/StillImage" />
      </cc:Work>
    </rdf:RDF>
  </metadata>
  <defs
     id="defs12" />
  <sodipodi:namedview
     pagecolor="#ffffff"
     bordercolor="#666666"
     borderopacity="1"
     objecttolerance="10"
     gridtolerance="10"
     guidetolerance="10"
     inkscape:pageopacity="0"
     inkscape:pageshadow="2"
     inkscape:window-width="1661"
     inkscape:window-height="1023"
     id="namedview10"
     showgrid="false"
     inkscape:zoom="14.75"
     inkscape:cx="-6.7118644"
     inkscape:cy="8"
     inkscape:window-x="40"
     inkscape:window-y="0"
     inkscape:window-maximized="0"
     inkscape:current-layer="svg8" />
  <circle
     fill="#FFF"
     cx="8"
     cy="6"
     r="2"
     id="circle6" />
  <path
     id="path816"
     d="m 8.0000001,0.90169539 c -2.4502461,0 -4.4364411,1.98619441 -4.4364411,4.43644051 0,4.4364403 4.4364411,9.7601691 4.4364411,9.7601691 0,0 4.4364409,-5.3237288 4.4364409,-9.7601691 0,-2.4502461 -1.986195,-4.43644051 -4.4364409,-4.43644051 z m 0,7.15376091 c -1.500848,0 -2.7173195,-1.2164725 -2.7173195,-2.7173204 0,-1.5008478 1.2164715,-2.7173198 2.7173195,-2.7173198 1.5008479,0 2.7173199,1.216472 2.7173199,2.7173198 0,1.5008479 -1.216472,2.7173204 -2.7173199,2.7173204 z M 6.2808802,5.3381359 c 0,-0.9493983 0.7697207,-1.7191206 1.7191199,-1.7191206 0.9493991,0 1.71912,0.7697223 1.71912,1.7191206 0,0.9493983 -0.7697209,1.7191209 -1.71912,1.7191209 -0.9493992,0 -1.7191199,-0.7697226 -1.7191199,-1.7191209 z"
     inkscape:connector-curvature="0"
     style="fill:#782144;stroke-width:0.44364405" />
</svg>
