<?xml version="1.0" encoding="UTF-8" standalone="no"?>
<svg
   xmlns:dc="http://purl.org/dc/elements/1.1/"
   xmlns:cc="http://creativecommons.org/ns#"
   xmlns:rdf="http://www.w3.org/1999/02/22-rdf-syntax-ns#"
   xmlns:svg="http://www.w3.org/2000/svg"
   xmlns="http://www.w3.org/2000/svg"
   xmlns:sodipodi="http://sodipodi.sourceforge.net/DTD/sodipodi-0.dtd"
   xmlns:inkscape="http://www.inkscape.org/namespaces/inkscape"
   x="0px"
   y="0px"
   width="96px"
   height="96px"
   viewBox="0 0 32 32"
   version="1.1"
   id="svg4"
   sodipodi:docname="tx_t3events_domain_model_task.svg"
   inkscape:version="0.92.3 (2405546, 2018-03-11)">
  <metadata
     id="metadata10">
    <rdf:RDF>
      <cc:Work
         rdf:about="">
        <dc:format>image/svg+xml</dc:format>
        <dc:type
           rdf:resource="http://purl.org/dc/dcmitype/StillImage" />
        <dc:title></dc:title>
      </cc:Work>
    </rdf:RDF>
  </metadata>
  <defs
     id="defs8" />
  <sodipodi:namedview
     pagecolor="#ffffff"
     bordercolor="#666666"
     borderopacity="1"
     objecttolerance="10"
     gridtolerance="10"
     guidetolerance="10"
     inkscape:pageopacity="0"
     inkscape:pageshadow="2"
     inkscape:window-width="1880"
     inkscape:window-height="1051"
     id="namedview6"
     showgrid="false"
     inkscape:object-paths="true"
     inkscape:snap-nodes="false"
     inkscape:zoom="3.4766083"
     inkscape:cx="-31.530908"
     inkscape:cy="79.227092"
     inkscape:window-x="40"
     inkscape:window-y="0"
     inkscape:window-maximized="1"
     inkscape:current-layer="svg4" />
  <g
     id="g862"
     transform="translate(56.093222,10.237288)">
    <rect
       y="-3.1864405"
       x="-51.525425"
       height="22.033897"
       width="22.644068"
       id="rect856"
       style="fill:#e9afc6;fill-opacity:1;stroke:none;stroke-width:0.03278316;stroke-miterlimit:4;stroke-dasharray:none;stroke-opacity:1" />
    <g
       style="fill:#782144"
       transform="matrix(0.88841808,0,0,0.88841808,-54.307911,-8.4519774)"
       id="g854">
      <path
         style="fill:#782144"
         inkscape:connector-curvature="0"
         d="M 29,4 H 20 C 20,1.791 18.209,0 16,0 13.791,0 12,1.791 12,4 H 3 C 2.448,4 2,4.448 2,5 v 26 c 0,0.552 0.448,1 1,1 h 26 c 0.552,0 1,-0.448 1,-1 V 5 C 30,4.448 29.552,4 29,4 Z M 16,2 c 1.105,0 2,0.895 2,2 0,1.105 -0.895,2 -2,2 C 14.895,6 14,5.105 14,4 14,2.895 14.895,2 16,2 Z M 28,30 H 4 V 6 h 4 v 3 c 0,0.552 0.448,1 1,1 h 14 c 0.552,0 1,-0.448 1,-1 V 6 h 4 z"
         id="path840" />
      <path
         style="fill:#782144"
         inkscape:connector-curvature="0"
         d="M 14,26.828 7.586,19.414 9.414,17.586 14,21.172 l 8.586,-7.586 1.829,1.828 z"
         id="path842" />
    </g>
  </g>
</svg>
