<?xml version="1.0" encoding="UTF-8" standalone="no"?>
<svg
   xmlns:dc="http://purl.org/dc/elements/1.1/"
   xmlns:cc="http://creativecommons.org/ns#"
   xmlns:rdf="http://www.w3.org/1999/02/22-rdf-syntax-ns#"
   xmlns:svg="http://www.w3.org/2000/svg"
   xmlns="http://www.w3.org/2000/svg"
   xmlns:sodipodi="http://sodipodi.sourceforge.net/DTD/sodipodi-0.dtd"
   xmlns:inkscape="http://www.inkscape.org/namespaces/inkscape"
   viewBox="0 0 16 16"
   version="1.1"
   id="svg8"
   sodipodi:docname="tx_t3events_domain_model_organizer.svg"
   inkscape:version="0.92.3 (2405546, 2018-03-11)">
  <metadata
     id="metadata14">
    <rdf:RDF>
      <cc:Work
         rdf:about="">
        <dc:format>image/svg+xml</dc:format>
        <dc:type
           rdf:resource="http://purl.org/dc/dcmitype/StillImage" />
        <dc:title></dc:title>
      </cc:Work>
    </rdf:RDF>
  </metadata>
  <defs
     id="defs12" />
  <sodipodi:namedview
     pagecolor="#ffffff"
     bordercolor="#666666"
     borderopacity="1"
     objecttolerance="10"
     gridtolerance="10"
     guidetolerance="10"
     inkscape:pageopacity="0"
     inkscape:pageshadow="2"
     inkscape:window-width="1661"
     inkscape:window-height="1023"
     id="namedview10"
     showgrid="false"
     inkscape:zoom="10.429825"
     inkscape:cx="6.629739"
     inkscape:cy="8"
     inkscape:window-x="40"
     inkscape:window-y="0"
     inkscape:window-maximized="0"
     inkscape:current-layer="svg8" />
  <path
     id="path1004"
     d="m 14.631346,6.9283189 c 0,-2.6023076 -0.761338,-4.7134967 -1.70296,-4.7300747 0.0037,0 0.0075,-4.14e-4 0.01119,-4.14e-4 h -1.074244 c 0,0 -2.5231485,1.8952623 -6.1549405,2.6387788 -0.111071,0.5864414 -0.181527,1.2856121 -0.181527,2.0917099 0,0.8060979 0.07087,1.5048541 0.181527,2.0917099 3.631792,0.7435164 6.1549405,2.6387792 6.1549405,2.6387792 h 1.074244 c -0.0037,0 -0.0075,-4.15e-4 -0.01119,-4.15e-4 0.941622,-0.01658 1.70296,-2.1277665 1.70296,-4.7300741 z M 12.56989,10.943474 c -0.121433,0 -0.252812,-0.125992 -0.320367,-0.201421 -0.163706,-0.181942 -0.321196,-0.465838 -0.455891,-0.8201893 -0.301302,-0.7928355 -0.46708,-1.85589 -0.46708,-2.9935448 0,-1.1376548 0.165778,-2.2002948 0.46708,-2.9935448 0.134695,-0.3543519 0.292185,-0.6382469 0.455891,-0.8201889 0.06756,-0.07543 0.198934,-0.201421 0.320367,-0.201421 0.121433,0 0.252812,0.125992 0.320367,0.201421 0.163706,0.181942 0.321196,0.465837 0.455891,0.8201889 0.301302,0.7928356 0.467081,1.8563045 0.467081,2.9935448 0,1.1372404 -0.165779,2.2002948 -0.467081,2.9935448 -0.134695,0.3543513 -0.292185,0.6382473 -0.455891,0.8201893 -0.06756,0.07502 -0.198934,0.201421 -0.320367,0.201421 z M 4.6303455,6.9283189 c 0,-0.6726461 0.04932,-1.3266422 0.142983,-1.9309048 -0.61338,0.084962 -1.151746,0.1338661 -1.817761,0.1338661 -0.868679,0 -0.868679,0 -0.868679,0 l -0.718235,1.2263463 v 1.1417993 l 0.718235,1.2263462 c 0,0 0,0 0.868679,0 0.665601,0 1.203967,0.048905 1.817761,0.1338662 -0.09366,-0.6042626 -0.142983,-1.2582587 -0.142983,-1.9309048 z m 1.506926,2.7577249 -1.657785,-0.3174657 1.060153,4.1643559 c 0.05471,0.215512 0.268562,0.324096 0.474956,0.241622 l 1.535523,-0.614624 c 0.206394,-0.08247 0.289283,-0.31042 0.184014,-0.506039 z M 12.56989,8.475861 c -0.04683,0 -0.09739,-0.04849 -0.123505,-0.077501 -0.063,-0.070042 -0.123919,-0.1794552 -0.175725,-0.3162225 -0.116045,-0.3058613 -0.17987,-0.7153341 -0.17987,-1.1538182 0,-0.438484 0.06382,-0.8479569 0.17987,-1.1538182 0.05181,-0.1367672 0.112729,-0.2457666 0.175725,-0.3162224 0.02611,-0.029011 0.07667,-0.077501 0.123505,-0.077501 0.04683,0 0.09739,0.04849 0.123505,0.077501 0.063,0.070041 0.12392,0.1794552 0.175725,0.3162224 0.116045,0.3054469 0.17987,0.7153342 0.17987,1.1538182 0,0.4384841 -0.06382,0.8479569 -0.17987,1.1538182 -0.05181,0.1367673 -0.112729,0.2457666 -0.175725,0.3162225 -0.02611,0.029011 -0.07667,0.077501 -0.123505,0.077501 z"
     inkscape:connector-curvature="0"
     style="stroke-width:0.41444618;fill:#782144" />
</svg>
